<mxfile host="65bd71144e">
    <diagram id="OOuECGsk_DA-N3IgI0MT" name="Page-1">
        <mxGraphModel dx="1020" dy="647" grid="1" gridSize="10" guides="1" tooltips="1" connect="1" arrows="1" fold="1" page="1" pageScale="1" pageWidth="850" pageHeight="1100" math="0" shadow="0">
            <root>
                <mxCell id="0"/>
                <mxCell id="1" parent="0"/>
                <mxCell id="13" value="&lt;b&gt;&lt;font style=&quot;font-size: 14px;&quot;&gt;cars_listed&lt;br&gt;&lt;/font&gt;&lt;/b&gt;&lt;br&gt;car_stock_number(PK)&lt;br&gt;car_title&lt;br&gt;car_location&lt;br&gt;car_distance&lt;br&gt;car_condition&lt;br&gt;car_make (FK)&lt;br&gt;car_model (FK)&lt;br&gt;car_trim (FK)&lt;br&gt;car_year (FK)&lt;br&gt;car_colour&lt;br&gt;car_seller&lt;br&gt;car_price&lt;br&gt;car_description&lt;br&gt;added_options&lt;br&gt;car_dealer (FK)&lt;br&gt;car_condition_analysis&lt;br&gt;car_price_analysis" style="rounded=0;whiteSpace=wrap;html=1;" vertex="1" parent="1">
                    <mxGeometry x="25" y="80" width="180" height="310" as="geometry"/>
                </mxCell>
                <mxCell id="14" value="&lt;b&gt;&lt;font style=&quot;font-size: 14px;&quot;&gt;car_features&lt;br&gt;&lt;/font&gt;&lt;/b&gt;&lt;br&gt;car_make (PK)&lt;br&gt;car_model (PK)&lt;br&gt;car_trim (PK)&lt;br&gt;car_year (PK)&lt;br&gt;car_body_type&lt;br&gt;car_engine&lt;br&gt;car_cylinder&lt;br&gt;car_transmission&lt;br&gt;car_drivetrain&lt;br&gt;city_fuel_economy&lt;br&gt;hwy_fuel_economy&lt;br&gt;fuel_type&lt;br&gt;num_passengers&lt;br&gt;num_doors" style="rounded=0;whiteSpace=wrap;html=1;" vertex="1" parent="1">
                    <mxGeometry x="580" y="100" width="180" height="270" as="geometry"/>
                </mxCell>
                <mxCell id="15" value="&lt;b&gt;&lt;font style=&quot;font-size: 14px;&quot;&gt;car_dealer_info&lt;br&gt;&lt;/font&gt;&lt;/b&gt;&lt;br&gt;dealer_name (PK)&lt;br&gt;dealer_website&lt;br&gt;dealer_contact&lt;br&gt;dealer_reviews&lt;br&gt;dealer_address" style="rounded=0;whiteSpace=wrap;html=1;strokeColor=none;" vertex="1" parent="1">
                    <mxGeometry x="340" y="440" width="180" height="220" as="geometry"/>
                </mxCell>
                <mxCell id="23" style="edgeStyle=none;html=1;exitX=0;exitY=0.5;exitDx=0;exitDy=0;entryX=1;entryY=0.5;entryDx=0;entryDy=0;endArrow=ERoneToMany;endFill=0;" edge="1" parent="1" source="19" target="13">
                    <mxGeometry relative="1" as="geometry"/>
                </mxCell>
                <mxCell id="25" style="edgeStyle=none;html=1;exitX=1;exitY=0.5;exitDx=0;exitDy=0;entryX=0;entryY=0.5;entryDx=0;entryDy=0;endArrow=ERmandOne;endFill=0;" edge="1" parent="1" source="19" target="14">
                    <mxGeometry relative="1" as="geometry"/>
                </mxCell>
                <mxCell id="19" value="has_features" style="rhombus;whiteSpace=wrap;html=1;" vertex="1" parent="1">
                    <mxGeometry x="340" y="177.5" width="110" height="115" as="geometry"/>
                </mxCell>
                <mxCell id="29" style="edgeStyle=none;html=1;exitX=0.5;exitY=0;exitDx=0;exitDy=0;endArrow=ERoneToMany;endFill=0;" edge="1" parent="1" source="26" target="13">
                    <mxGeometry relative="1" as="geometry"/>
                </mxCell>
                <mxCell id="32" style="edgeStyle=none;html=1;exitX=1;exitY=0.5;exitDx=0;exitDy=0;endArrow=ERmandOne;endFill=0;" edge="1" parent="1" source="26" target="15">
                    <mxGeometry relative="1" as="geometry"/>
                </mxCell>
                <mxCell id="26" value="sold_by" style="rhombus;whiteSpace=wrap;html=1;" vertex="1" parent="1">
                    <mxGeometry x="60" y="500" width="110" height="100" as="geometry"/>
                </mxCell>
            </root>
        </mxGraphModel>
    </diagram>
</mxfile>